<?xml version="1.0" encoding="utf-8"?>
<!-- Generator: Adobe Illustrator 17.0.0, SVG Export Plug-In . SVG Version: 6.00 Build 0)  -->
<!DOCTYPE svg PUBLIC "-//W3C//DTD SVG 1.1//EN" "http://www.w3.org/Graphics/SVG/1.1/DTD/svg11.dtd">
<svg version="1.1" id="Layer_1" xmlns="http://www.w3.org/2000/svg" xmlns:xlink="http://www.w3.org/1999/xlink" x="0px" y="0px"
	 width="665.8px" height="465.3px" viewBox="0 0 665.8 465.3" style="enable-background:new 0 0 665.8 465.3;" xml:space="preserve"
	>
<style type="text/css">
	.st0{opacity:0.46;fill:#EAEAEA;}
	.st1{opacity:0.44;fill:#EAEAEA;}
	.st2{fill:#F2F2F2;}
	.st3{fill:#2A2E3E;}
	.st4{fill:#FEDC80;}
	.st5{fill:#EAC15E;}
	.st6{fill:#EE293E;}
	.st7{fill:#D6D6D6;}
	.st8{fill:#EAEAEA;}
	.st9{fill:#8D95B1;}
	.st10{fill:#3A4051;}
	.st11{fill:#F5BC49;}
	.st12{fill:#33343C;}
	.st13{fill:#CCCCCC;}
	.st14{fill:#495A61;}
	.st15{fill:#DB1F28;}
</style>
<g>
	<g>
		<circle class="st0" cx="597.2" cy="196.2" r="39.4"/>
		<circle class="st1" cx="597.2" cy="196.2" r="27.1"/>
		<circle class="st2" cx="603.4" cy="208.1" r="10.1"/>
		<path class="st3" d="M644.4,214c9.8-26-3.3-55.1-29.3-65c-26-9.8-55.1,3.3-65,29.3c-9.2,24.4,1.8,51.6,24.7,62.9l-12.3,32.5
			l-1.2-0.4c-2.4-0.9-5,0.3-5.9,2.7l-29,76.7c-0.9,2.4,0.3,5,2.7,5.9l11.8,4.5c2.4,0.9,5-0.3,5.9-2.7l29-76.7c0.9-2.4-0.3-5-2.7-5.9
			l-1.2-0.4l12.3-32.5C609,251.5,635.1,238.4,644.4,214z M560.3,182.2c7.7-20.4,30.5-30.6,50.8-22.9c20.4,7.7,30.6,30.5,22.9,50.8
			c-7.7,20.4-30.5,30.6-50.8,22.9C562.9,225.4,552.6,202.6,560.3,182.2z"/>
	</g>
	<g>
		<path class="st4" d="M146,103.9l-13-9.2l-59.8,14.7c5.6,21.8,34.9,136.6,33.6,136.9c-1.4,0.4,199.2-49,199.2-49L275.2,72.1
			L146,103.9z"/>
		<polygon class="st5" points="85.4,106.4 83.8,93.1 278.5,45.2 305.9,197.3 275.2,72.1 146,103.9 133,94.7 		"/>
		<polygon class="st2" points="81.3,108.3 79,99.1 263,53.9 267.9,73.9 146,103.9 133,94.7 		"/>
	</g>
	<g>
		<polygon class="st2" points="574.1,105.6 564.5,92.1 547.9,91.4 538.3,77.9 521.7,77.2 512.1,63.7 495.5,63 485.9,49.6 
			469.3,48.8 459.7,35.4 443.1,34.6 433.5,21.2 430,27.5 390.9,99.8 334.2,204.5 491.4,289.7 548.1,184.9 587.3,112.6 590.7,106.3 
					"/>
		<path class="st6" d="M558.7,134.8L427.1,63.5c-1.5-0.8-2.1-2.7-1.3-4.2l6.5-11.9c0.8-1.5,2.7-2.1,4.2-1.3l131.6,71.2
			c1.5,0.8,2.1,2.7,1.3,4.2l-6.5,11.9C562.1,135,560.2,135.6,558.7,134.8z"/>
		<path class="st7" d="M431.2,138.5l-34.7-18.8c-1.4-0.8-2-2.6-1.2-4l23.6-43.6c0.8-1.4,2.6-2,4-1.2l34.7,18.8c1.4,0.8,2,2.6,1.2,4
			l-23.6,43.6C434.4,138.7,432.6,139.3,431.2,138.5z"/>
		<path class="st7" d="M387.7,217.3l-33.4-18.1c-1.8-1-2.4-3.2-1.5-5l36.9-68.1c1-1.8,3.2-2.4,5-1.5l33.4,18.1c1.8,1,2.4,3.2,1.5,5
			l-36.9,68.1C391.7,217.6,389.5,218.2,387.7,217.3z"/>
		<path class="st7" d="M547.7,156.8l-87.1-47.2c-1.1-0.6-1.5-2-0.9-3.2l5.4-10.1c0.6-1.1,2-1.5,3.2-0.9l87.1,47.2
			c1.1,0.6,1.5,2,0.9,3.2l-5.4,10.1C550.2,156.9,548.8,157.4,547.7,156.8z"/>
		
			<rect x="447.5" y="137.1" transform="matrix(0.8793 0.4762 -0.4762 0.8793 127.8302 -220.6689)" class="st7" width="103.7" height="9.7"/>
		<path class="st7" d="M535.9,180.7l-89-48.2c-0.6-0.3-0.8-1.1-0.5-1.7l0.8-1.5c0.3-0.6,1.1-0.8,1.7-0.5l89,48.2
			c0.6,0.3,0.8,1.1,0.5,1.7l-0.8,1.5C537.3,180.8,536.5,181.1,535.9,180.7z"/>
		<path class="st7" d="M532.3,187.4l-89-48.2c-0.6-0.3-0.8-1.1-0.5-1.7l0.8-1.5c0.3-0.6,1.1-0.8,1.7-0.5l89,48.2
			c0.6,0.3,0.8,1.1,0.5,1.7l-0.8,1.5C533.6,187.5,532.9,187.8,532.3,187.4z"/>
		<path class="st7" d="M528.6,194.1l-89-48.2c-0.6-0.3-0.8-1.1-0.5-1.7l0.8-1.5c0.3-0.6,1.1-0.8,1.7-0.5l89,48.2
			c0.6,0.3,0.8,1.1,0.5,1.7l-0.8,1.5C530,194.2,529.3,194.5,528.6,194.1z"/>
		<path class="st7" d="M525,200.8l-89-48.2c-0.6-0.3-0.8-1.1-0.5-1.7l0.8-1.5c0.3-0.6,1.1-0.8,1.7-0.5l89,48.2
			c0.6,0.3,0.8,1.1,0.5,1.7l-0.8,1.5C526.4,200.9,525.6,201.2,525,200.8z"/>
		<path class="st7" d="M521.4,207.5l-89-48.2c-0.6-0.3-0.8-1.1-0.5-1.7l0.8-1.5c0.3-0.6,1.1-0.8,1.7-0.5l89,48.2
			c0.6,0.3,0.8,1.1,0.5,1.7l-0.8,1.5C522.8,207.6,522,207.9,521.4,207.5z"/>
		<path class="st7" d="M517.8,214.2l-89-48.2c-0.6-0.3-0.8-1.1-0.5-1.7l0.8-1.5c0.3-0.6,1.1-0.8,1.7-0.5l89,48.2
			c0.6,0.3,0.8,1.1,0.5,1.7l-0.8,1.5C519.1,214.3,518.4,214.6,517.8,214.2z"/>
		<path class="st7" d="M514.1,220.9l-89-48.2c-0.6-0.3-0.8-1.1-0.5-1.7l0.8-1.5c0.3-0.6,1.1-0.8,1.7-0.5l89,48.2
			c0.6,0.3,0.8,1.1,0.5,1.7l-0.8,1.5C515.5,221,514.7,221.3,514.1,220.9z"/>
		<path class="st7" d="M510.5,227.6l-89-48.2c-0.6-0.3-0.8-1.1-0.5-1.7l0.8-1.5c0.3-0.6,1.1-0.8,1.7-0.5l89,48.2
			c0.6,0.3,0.8,1.1,0.5,1.7l-0.8,1.5C511.9,227.7,511.1,228,510.5,227.6z"/>
		<path class="st7" d="M448.2,216.5l-36.5-19.8c-0.4-0.2-0.5-0.7-0.3-1.1l1.2-2.3c0.2-0.4,0.7-0.5,1.1-0.3l36.5,19.8
			c0.4,0.2,0.5,0.7,0.3,1.1l-1.2,2.3C449,216.6,448.6,216.7,448.2,216.5z"/>
		<path class="st7" d="M495.4,255.6l-89-48.2c-0.6-0.3-0.8-1.1-0.5-1.7l0.8-1.5c0.3-0.6,1.1-0.8,1.7-0.5l89,48.2
			c0.6,0.3,0.8,1.1,0.5,1.7l-0.8,1.5C496.7,255.7,496,255.9,495.4,255.6z"/>
		<path class="st7" d="M491.7,262.3l-89-48.2c-0.6-0.3-0.8-1.1-0.5-1.7l0.8-1.5c0.3-0.6,1.1-0.8,1.7-0.5l89,48.2
			c0.6,0.3,0.8,1.1,0.5,1.7l-0.8,1.5C493.1,262.4,492.4,262.6,491.7,262.3z"/>
		<path class="st7" d="M488.1,269l-89-48.2c-0.6-0.3-0.8-1.1-0.5-1.7l0.8-1.5c0.3-0.6,1.1-0.8,1.7-0.5l89,48.2
			c0.6,0.3,0.8,1.1,0.5,1.7l-0.8,1.5C489.5,269.1,488.7,269.3,488.1,269z"/>
	</g>
	<g>
		<polygon class="st8" points="487.2,351.3 576,403.1 665.8,353.1 		"/>
		<polygon class="st9" points="487.2,351.3 577,301.2 665.8,353.1 		"/>
		<g>
			<path class="st9" d="M639.5,377.3L502.4,376c-1.4,0-2.5-1.2-2.5-2.5l0-0.4c0-1.4,1.2-2.5,2.5-2.5l137.1,1.4
				c1.4,0,2.5,1.2,2.5,2.5l0,0.4C642,376.2,640.9,377.3,639.5,377.3z"/>
			<path class="st9" d="M639.4,386l-137.1-1.4c-1.4,0-2.5-1.2-2.5-2.5l0-0.4c0-1.4,1.2-2.5,2.5-2.5l137.1,1.4c1.4,0,2.5,1.2,2.5,2.5
				l0,0.4C641.9,384.9,640.8,386,639.4,386z"/>
			<path class="st9" d="M639.2,402.6l-137.1-1.4c-1.4,0-2.5-1.2-2.5-2.5l0-0.4c0-1.4,1.2-2.5,2.5-2.5l137.1,1.4
				c1.4,0,2.5,1.2,2.5,2.5l0,0.4C641.7,401.5,640.6,402.6,639.2,402.6z"/>
		</g>
		<polygon class="st3" points="513.8,351.6 487.2,351.3 486.7,402.2 486.2,453.2 512.7,453.4 576,403.1 		"/>
		<polygon class="st3" points="639.2,352.8 665.8,353.1 665.3,404 664.8,454.9 638.2,454.7 576,403.1 		"/>
		<polygon class="st10" points="512.7,453.4 638.2,454.7 576,403.1 		"/>
	</g>
	<g>
		<path class="st11" d="M22.1,169.1c-22.7,21.6-23.6,57.6-2,80.2c15.2,15.9,52.5,18.4,69.4,28.2l17.8,18.7l37.7-35.9l-17.8-18.7
			c-9.9-15-9.7-54.7-24.8-70.6C80.7,148.3,44.8,147.5,22.1,169.1z"/>
		<path class="st12" d="M76.9,191.5c-0.1-0.2-0.2-0.4-0.4-0.5c-0.2-0.2-0.4-0.2-0.6,0c-1.1,0.8-0.8,3-0.8,4.3c0,1.5,0.1,3,0.2,4.5
			c-1-0.4-2.4-0.1-3.4,0c-1.4,0.1-2.8,0.2-4.2,0.6c-0.2-0.1-0.4-0.1-0.5,0.1c-0.2,1-0.3,1.9-0.2,2.9c0.1,1,0,2,0.3,3
			c-1-0.2-2-0.1-3-0.1c-1.5,0.1-3,0-4.4,0.4c-0.2,0-0.3,0.2-0.4,0.4c-0.1,0-0.1,0.1-0.2,0.1c-0.7,1-0.7,2.4-0.7,3.6l-0.1,1.9
			c0,0.4,0.1,1.5,0,2.1c-1-0.2-1.9-0.2-3-0.1c-1.4,0.1-3,0.2-4.3,0.9c-0.1,0.1-0.2,0.2-0.2,0.3c-0.1,0-0.2,0-0.3,0.1
			c-1,0.9-1.2,2.3-1.5,3.5c-0.3,1.4-0.8,2.9-0.7,4.4c-2.6-0.1-5,0.6-7.5,1.4l-0.1-0.1l-1.1,1.6l65.7,46.1l1.1-1.6l-64.4-45.2
			c2.3-0.1,4.6-0.4,6.8-1.3c0.3,0.1,0.6,0.1,0.8-0.2c0.8-1.4,1.1-3,1.4-4.5c0.3-1.2,0.7-2.5,0.3-3.8c1.2,0.4,2.6,0.3,3.9,0.3
			c1.3,0,2.7,0,3.8-0.8c0,0,0-0.1,0.1-0.1c0.9-0.6,0.7-2.5,0.8-3.5c0.1-1.5,0.5-3.2,0.1-4.6c1.3,0.2,2.6,0.1,3.9,0.1
			c1.4,0,2.7-0.1,4-0.6c0.2-0.1,0.2-0.3,0.1-0.4c0,0,0,0,0-0.1c0.2-0.9,0.1-2,0-2.9c0-0.9-0.1-1.7-0.3-2.5c1.3,0.2,2.5,0.2,3.8,0.1
			c1.2,0,2.9,0.1,3.9-0.7c0.2,0,0.4-0.1,0.5-0.3c0.3-1.7,0.5-3.4,0.6-5.1c0-0.2,0-0.5,0.1-0.8l41.5,65.6l1.6-1l-42.9-67.8
			L76.9,191.5z"/>
		
			<ellipse transform="matrix(0.7238 -0.69 0.69 0.7238 -162.8455 174.928)" class="st13" cx="137.1" cy="290.9" rx="14.7" ry="3.6"/>
		<path class="st14" d="M127.1,252.5L100.4,278c-4.1,3.9-4.9,9.7-1.8,12.9l9,9.5c2.7,2.8,10.9,6.6,15.8,5.1l29.5-28.1
			c1.9-4.9-1.2-13.7-3.8-16.5l-9-9.5C137,248.1,131.2,248.6,127.1,252.5z"/>
		<path class="st13" d="M141.4,254.8L102,292.4c-1,0.9-2.5,0.9-3.4-0.1l-6-6.3c-0.9-1-0.9-2.5,0.1-3.4l39.4-37.6
			c1-0.9,2.5-0.9,3.4,0.1l6,6.3C142.4,252.4,142.4,253.9,141.4,254.8z"/>
	</g>
	<g>
		<circle class="st3" cx="95.8" cy="371.6" r="93.7"/>
		<circle class="st8" cx="95.8" cy="371.6" r="79.6"/>
		<g>
			<path class="st3" d="M95.8,310.1L95.8,310.1c1.2,0,2.1-1,2.1-2.1v-8.7c0-1.2-1-2.1-2.1-2.1l0,0c-1.2,0-2.1,1-2.1,2.1v8.7
				C93.7,309.1,94.7,310.1,95.8,310.1z"/>
			<path class="st3" d="M116.9,313.8L116.9,313.8c1.1,0.4,2.3-0.2,2.7-1.3l3-8.2c0.4-1.1-0.2-2.3-1.3-2.7l0,0
				c-1.1-0.4-2.3,0.2-2.7,1.3l-3,8.2C115.2,312.1,115.8,313.4,116.9,313.8z"/>
			<path class="st3" d="M135.4,324.5L135.4,324.5c0.9,0.8,2.2,0.6,3-0.3l5.6-6.7c0.8-0.9,0.6-2.2-0.3-3l0,0c-0.9-0.8-2.2-0.6-3,0.3
				l-5.6,6.7C134.4,322.4,134.5,323.7,135.4,324.5z"/>
			<path class="st3" d="M149.1,340.8L149.1,340.8c0.6,1,1.9,1.4,2.9,0.8l7.6-4.4c1-0.6,1.4-1.9,0.8-2.9l0,0c-0.6-1-1.9-1.4-2.9-0.8
				l-7.6,4.4C148.9,338.5,148.6,339.8,149.1,340.8z"/>
			<path class="st3" d="M156.5,360.9L156.5,360.9c0.2,1.1,1.3,1.9,2.5,1.7l8.6-1.5c1.1-0.2,1.9-1.3,1.7-2.5l0,0
				c-0.2-1.1-1.3-1.9-2.5-1.7l-8.6,1.5C157,358.7,156.3,359.8,156.5,360.9z"/>
			<path class="st3" d="M156.5,382.3L156.5,382.3c-0.2,1.1,0.6,2.3,1.7,2.5l8.6,1.5c1.1,0.2,2.3-0.6,2.5-1.7l0,0
				c0.2-1.1-0.6-2.3-1.7-2.5l-8.6-1.5C157.8,380.4,156.7,381.1,156.5,382.3z"/>
			<path class="st3" d="M149.1,402.4L149.1,402.4c-0.6,1-0.2,2.3,0.8,2.9l7.6,4.4c1,0.6,2.3,0.2,2.9-0.8l0,0c0.6-1,0.2-2.3-0.8-2.9
				l-7.6-4.4C151,401,149.7,401.4,149.1,402.4z"/>
			<path class="st3" d="M135.4,418.8L135.4,418.8c-0.9,0.8-1,2.1-0.3,3l5.6,6.7c0.8,0.9,2.1,1,3,0.3l0,0c0.9-0.8,1-2.1,0.3-3
				l-5.6-6.7C137.6,418.1,136.3,418,135.4,418.8z"/>
			<path class="st3" d="M116.9,429.4L116.9,429.4c-1.1,0.4-1.7,1.6-1.3,2.7l3,8.2c0.4,1.1,1.6,1.7,2.7,1.3l0,0
				c1.1-0.4,1.7-1.6,1.3-2.7l-3-8.2C119.2,429.6,118,429,116.9,429.4z"/>
			<path class="st3" d="M95.8,433.2L95.8,433.2c-1.2,0-2.1,1-2.1,2.1v8.7c0,1.2,1,2.1,2.1,2.1l0,0c1.2,0,2.1-1,2.1-2.1v-8.7
				C98,434.1,97,433.2,95.8,433.2z"/>
			<path class="st3" d="M74.8,429.4L74.8,429.4c-1.1-0.4-2.3,0.2-2.7,1.3l-3,8.2c-0.4,1.1,0.2,2.3,1.3,2.7l0,0
				c1.1,0.4,2.3-0.2,2.7-1.3l3-8.2C76.5,431.1,75.9,429.8,74.8,429.4z"/>
			<path class="st3" d="M56.3,418.8L56.3,418.8c-0.9-0.8-2.2-0.6-3,0.3l-5.6,6.7c-0.8,0.9-0.6,2.2,0.3,3l0,0c0.9,0.8,2.2,0.6,3-0.3
				l5.6-6.7C57.3,420.8,57.2,419.5,56.3,418.8z"/>
			<path class="st3" d="M42.5,402.4L42.5,402.4c-0.6-1-1.9-1.4-2.9-0.8l-7.6,4.4c-1,0.6-1.4,1.9-0.8,2.9l0,0c0.6,1,1.9,1.4,2.9,0.8
				l7.6-4.4C42.8,404.7,43.1,403.4,42.5,402.4z"/>
			<path class="st3" d="M35.2,382.3L35.2,382.3c-0.2-1.1-1.3-1.9-2.5-1.7l-8.6,1.5c-1.1,0.2-1.9,1.3-1.7,2.5l0,0
				c0.2,1.1,1.3,1.9,2.5,1.7l8.6-1.5C34.7,384.5,35.4,383.4,35.2,382.3z"/>
			<path class="st3" d="M35.2,360.9L35.2,360.9c0.2-1.1-0.6-2.3-1.7-2.5l-8.6-1.5c-1.1-0.2-2.3,0.6-2.5,1.7l0,0
				c-0.2,1.1,0.6,2.3,1.7,2.5l8.6,1.5C33.9,362.8,35,362.1,35.2,360.9z"/>
			<path class="st3" d="M42.5,340.8L42.5,340.8c0.6-1,0.2-2.3-0.8-2.9l-7.6-4.4c-1-0.6-2.3-0.2-2.9,0.8l0,0c-0.6,1-0.2,2.3,0.8,2.9
				l7.6,4.4C40.6,342.2,42,341.8,42.5,340.8z"/>
			<path class="st3" d="M56.3,324.5L56.3,324.5c0.9-0.8,1-2.1,0.3-3l-5.6-6.7c-0.8-0.9-2.1-1-3-0.3l0,0c-0.9,0.8-1,2.1-0.3,3
				l5.6,6.7C54,325.1,55.4,325.2,56.3,324.5z"/>
			<path class="st3" d="M74.8,313.8L74.8,313.8c1.1-0.4,1.7-1.6,1.3-2.7l-3-8.2c-0.4-1.1-1.6-1.7-2.7-1.3l0,0
				c-1.1,0.4-1.7,1.6-1.3,2.7l3,8.2C72.5,313.6,73.7,314.2,74.8,313.8z"/>
		</g>
		<path class="st9" d="M60.1,411.3L60.1,411.3c1.1,1,2.8,0.9,3.8-0.2l33.3-36.6c1-1.1,0.9-2.8-0.2-3.8l0,0c-1.1-1-2.8-0.9-3.8,0.2
			L60,407.5C59,408.6,59.1,410.3,60.1,411.3z"/>
		<rect x="39.4" y="370.9" class="st6" width="56.4" height="1.5"/>
		<circle class="st3" cx="95.8" cy="371.6" r="6.5"/>
		<path class="st3" d="M95.4,370.9h0.8c2.3,0,4.2-1.9,4.2-4.2v-36.8c0-2.3-1.9-4.2-4.2-4.2h-0.8c-2.3,0-4.2,1.9-4.2,4.2v36.8
			C91.2,369,93.1,370.9,95.4,370.9z"/>
	</g>
	<g>
		
			<rect x="181.1" y="129.4" transform="matrix(0.1525 -0.9883 0.9883 0.1525 128.0015 460.7049)" class="st6" width="303" height="52.6"/>
		<g>
			
				<rect x="295.8" y="279.5" transform="matrix(0.1525 -0.9883 0.9883 0.1525 -36.4627 542.6961)" class="st2" width="4.8" height="26.3"/>
			
				<rect x="338.6" y="1.7" transform="matrix(0.1525 -0.9883 0.9883 0.1525 274.398 349.6228)" class="st2" width="4.8" height="26.3"/>
		</g>
		<g>
			
				<rect x="294.1" y="276.4" transform="matrix(0.1525 -0.9883 0.9883 0.1525 -31.8612 532.9385)" class="st2" width="1.5" height="17.3"/>
			
				<rect x="295.8" y="265.4" transform="matrix(0.1524 -0.9883 0.9883 0.1524 -19.5307 525.3163)" class="st2" width="1.5" height="17.3"/>
			
				<rect x="297.5" y="254.4" transform="matrix(0.1525 -0.9883 0.9883 0.1525 -7.2411 517.6426)" class="st2" width="1.5" height="17.3"/>
			
				<rect x="299.2" y="243.4" transform="matrix(0.1525 -0.9883 0.9883 0.1525 5.0715 509.9979)" class="st2" width="1.5" height="17.3"/>
			
				<rect x="300.9" y="232.4" transform="matrix(0.1525 -0.9883 0.9883 0.1525 17.385 502.3539)" class="st2" width="1.5" height="17.3"/>
			
				<rect x="302.6" y="221.4" transform="matrix(0.1525 -0.9883 0.9883 0.1525 29.6934 494.7046)" class="st2" width="1.5" height="17.3"/>
			
				<rect x="304.3" y="210.4" transform="matrix(0.1525 -0.9883 0.9883 0.1525 42.0061 487.0598)" class="st2" width="1.5" height="17.3"/>
			
				<rect x="306" y="199.4" transform="matrix(0.1525 -0.9883 0.9883 0.1525 54.3196 479.4155)" class="st2" width="1.5" height="17.3"/>
			
				<rect x="307.6" y="188.4" transform="matrix(0.1524 -0.9883 0.9883 0.1524 66.6487 471.7849)" class="st2" width="1.5" height="17.3"/>
			
				<rect x="309.3" y="177.4" transform="matrix(0.1525 -0.9883 0.9883 0.1525 78.9427 464.1234)" class="st2" width="1.5" height="17.3"/>
			
				<rect x="311" y="166.4" transform="matrix(0.1525 -0.9883 0.9883 0.1525 91.2563 456.4788)" class="st2" width="1.5" height="17.3"/>
			
				<rect x="312.7" y="155.4" transform="matrix(0.1525 -0.9883 0.9883 0.1525 103.5658 448.831)" class="st2" width="1.5" height="17.3"/>
			
				<rect x="314.4" y="144.4" transform="matrix(0.1525 -0.9883 0.9883 0.1525 115.8739 441.1826)" class="st2" width="1.5" height="17.3"/>
			
				<rect x="316.1" y="133.4" transform="matrix(0.1525 -0.9883 0.9883 0.1525 128.1911 433.5402)" class="st2" width="1.5" height="17.3"/>
			
				<rect x="317.8" y="122.4" transform="matrix(0.1525 -0.9883 0.9883 0.1525 140.5004 425.8926)" class="st2" width="1.5" height="17.3"/>
			
				<rect x="319.5" y="111.4" transform="matrix(0.1525 -0.9883 0.9883 0.1525 152.8085 418.2446)" class="st2" width="1.5" height="17.3"/>
			
				<rect x="321.2" y="100.4" transform="matrix(0.1525 -0.9883 0.9883 0.1525 165.1235 410.6004)" class="st2" width="1.5" height="17.3"/>
			
				<rect x="322.9" y="89.4" transform="matrix(0.1524 -0.9883 0.9883 0.1524 177.4559 402.9642)" class="st2" width="1.5" height="17.3"/>
			
				<rect x="324.6" y="78.4" transform="matrix(0.1525 -0.9883 0.9883 0.1525 189.7429 395.3065)" class="st2" width="1.5" height="17.3"/>
			
				<rect x="326.3" y="67.4" transform="matrix(0.1525 -0.9883 0.9883 0.1525 202.0581 387.662)" class="st2" width="1.5" height="17.3"/>
			
				<rect x="328" y="56.4" transform="matrix(0.1525 -0.9883 0.9883 0.1525 214.3673 380.015)" class="st2" width="1.5" height="17.3"/>
			
				<rect x="329.7" y="45.4" transform="matrix(0.1525 -0.9883 0.9883 0.1525 226.6812 372.3697)" class="st2" width="1.5" height="17.3"/>
			
				<rect x="331.4" y="34.4" transform="matrix(0.1525 -0.9883 0.9883 0.1525 238.989 364.7224)" class="st2" width="1.5" height="17.3"/>
			
				<rect x="333.1" y="23.4" transform="matrix(0.1525 -0.9883 0.9883 0.1525 251.3043 357.0774)" class="st2" width="1.5" height="17.3"/>
			
				<rect x="334.8" y="12.3" transform="matrix(0.1524 -0.9883 0.9883 0.1524 263.6407 349.4367)" class="st2" width="1.5" height="17.3"/>
		</g>
	</g>
	<g>
		<path class="st8" d="M150.6,432.9c-9.2,0-16.6-7.5-16.6-16.6V191.8c0-9.2,7.5-16.6,16.6-16.6h367.2c9.2,0,16.6,7.5,16.6,16.6
			v224.5c0,9.2-7.5,16.6-16.6,16.6H150.6z"/>
		<path class="st3" d="M517.8,183c4.8,0,8.8,4,8.8,8.8v224.5c0,4.8-4,8.8-8.8,8.8H150.6c-4.8,0-8.8-4-8.8-8.8V191.8
			c0-4.8,4-8.8,8.8-8.8H517.8 M517.8,167.4H150.6c-13.4,0-24.4,11-24.4,24.4v224.5c0,13.4,11,24.4,24.4,24.4h367.2
			c13.4,0,24.4-11,24.4-24.4V191.8C542.2,178.3,531.2,167.4,517.8,167.4L517.8,167.4z"/>
		<path class="st2" d="M489.3,395.4H179c-2.5,0-4.6-2.1-4.6-4.6V217.3c0-2.5,2.1-4.6,4.6-4.6h310.2c2.5,0,4.6,2.1,4.6,4.6v173.5
			C493.9,393.3,491.8,395.4,489.3,395.4z"/>
		<path class="st6" d="M174.4,382.6c2-3.4,46-65.9,46-65.9l26.4,17.6l35.7-20.5l18.6,18.1l76.2-77.2l43.5,64l19.1-14.6l23.4,25.3
			l30.7-17.1v78.5c0,0-0.5,4.6-4.6,4.6c-4.1,0-310.2,0-310.2,0s-4.6-0.4-4.6-4.6C174.4,386.5,174.4,382.6,174.4,382.6z"/>
		<path class="st15" d="M174.4,387.8c2.2-0.7,52.6-33.2,53-32.2c0.3,1,20.8,17.2,22.1,16.1c1.3-1.1,38.1-35.6,38.4-34.3
			c0.3,1.3,17.6,19.2,17.6,19.2l44.9-28.7c0,0,43.3,16.9,44,18.6c0.7,1.6,5.9,11.4,6.2,11.4c0.3,0,35.2-30,35.2-30l19.5,31.6
			l38.5-31.6v62.9c0,0-0.7,4.6-4.6,4.6c-4,0-310.2,0-310.2,0s-4.6,0-4.6-4.6V387.8z"/>
		<g>
			<path class="st8" d="M590.2,465.3v-8c0-9.1-7-16.6-15.5-16.6H93.6c-8.5,0-15.5,7.5-15.5,16.6v8H590.2z"/>
			<rect x="78.1" y="457.3" class="st7" width="512.1" height="8"/>
			<rect x="190.8" y="449.6" class="st3" width="286.8" height="7.7"/>
		</g>
	</g>
</g>
</svg>
