<?xml version="1.0" encoding="utf-8"?>
<!-- Generator: Adobe Illustrator 16.0.0, SVG Export Plug-In . SVG Version: 6.00 Build 0)  -->
<!DOCTYPE svg PUBLIC "-//W3C//DTD SVG 1.1//EN" "http://www.w3.org/Graphics/SVG/1.1/DTD/svg11.dtd">
<svg xmlns="http://www.w3.org/2000/svg" xmlns:xlink="http://www.w3.org/1999/xlink" version="1.1" id="Layer_1" x="0px" y="0px" width="1000px" height="1000px" viewBox="0 0 1000 1000" xml:space="preserve">
<g>
	<g opacity="0.3">
		<g>
			<path fill="#FFFFFF" d="M812.143,445.237l-25.967-0.007c-5.259,0-9.578-4.331-9.578-9.606v-12.365     c-3.81-0.758-7.621-1.733-11.354-2.89l-6.536,11.228c-1.685,2.966-4.878,4.802-8.268,4.802c-1.678,0-3.349-0.452-4.813-1.292     l-22.478-12.968c-2.203-1.245-3.812-3.312-4.477-5.811c-0.659-2.458-0.315-5.049,0.966-7.312l6.189-10.696     c-2.902-2.523-5.729-5.271-8.416-8.176l-11.251,6.486c-1.47,0.841-3.104,1.249-4.782,1.249c-3.422,0-6.617-1.833-8.342-4.757     l-12.969-22.491c-1.267-2.219-1.618-4.807-0.955-7.26c0.687-2.502,2.238-4.564,4.5-5.856l10.686-6.178     c-1.27-3.674-2.335-7.477-3.192-11.299h-12.96c-5.294,0-9.62-4.334-9.62-9.612v-25.931c0-5.28,4.326-9.616,9.62-9.616h12.36     c0.758-3.83,1.728-7.642,2.888-11.366l-11.234-6.487c-2.236-1.289-3.812-3.354-4.48-5.856c-0.668-2.458-0.312-5.05,0.935-7.268     l12.972-22.435c1.763-2.975,4.965-4.808,8.382-4.808c1.674,0,3.339,0.404,4.778,1.241l10.72,6.185     c2.504-2.849,5.247-5.663,8.157-8.344l-6.479-11.273c-1.302-2.223-1.624-4.82-0.954-7.326c0.661-2.453,2.243-4.512,4.468-5.797     l22.438-12.97c1.475-0.844,3.146-1.295,4.826-1.295c3.439,0,6.609,1.834,8.341,4.804l6.152,10.686     c3.705-1.234,7.474-2.302,11.289-3.192v-12.924c0-5.321,4.323-9.61,9.617-9.61h25.931c5.3,0,9.61,4.289,9.61,9.61v12.365     c3.909,0.764,7.725,1.697,11.395,2.847l6.479-11.221c1.72-2.971,4.917-4.807,8.329-4.807c1.675,0,3.34,0.45,4.771,1.286     l22.48,12.973c4.581,2.662,6.152,8.543,3.521,13.125l-6.202,10.738c2.931,2.533,5.745,5.277,8.388,8.172l11.273-6.488     c1.429-0.84,3.098-1.292,4.772-1.292c3.437,0,6.631,1.834,8.351,4.803l12.969,22.438c2.61,4.588,1.062,10.512-3.51,13.128     l-10.688,6.176c1.244,3.739,2.312,7.542,3.2,11.301h12.948c2.579,0,4.965,1.039,6.787,2.867c1.805,1.78,2.818,4.209,2.814,6.791     v25.884c-0.006,5.329-4.34,9.665-9.604,9.665h-12.369c-0.762,3.833-1.745,7.643-2.868,11.312l11.2,6.492     c4.579,2.663,6.188,8.542,3.51,13.12l-12.966,22.488c-1.722,2.973-4.918,4.807-8.302,4.807c-1.675,0-3.345-0.45-4.771-1.287     l-10.768-6.188c-2.558,2.908-5.262,5.726-8.201,8.391l6.513,11.225c2.64,4.642,1.066,10.522-3.513,13.134l-22.44,13.008     c-1.504,0.846-3.175,1.25-4.827,1.25c-3.404,0-6.602-1.836-8.291-4.806l-6.198-10.679c-3.655,1.271-7.419,2.335-11.292,3.188     v12.968C821.754,440.903,817.439,445.237,812.143,445.237L812.143,445.237z M762.355,412.833l2.436,0.827     c5.06,1.688,10.279,3.034,15.467,3.895l2.596,0.451v17.62c0,1.839,1.488,3.354,3.354,3.354l25.938,0.006     c1.873,0,3.357-1.519,3.357-3.357v-18.066l2.527-0.479c5.31-1.072,10.449-2.566,15.331-4.339l2.491-0.908l8.787,15.188     c0.889,1.587,3,2.138,4.584,1.223l22.479-12.967c1.583-0.918,2.144-2.979,1.221-4.595l-9.087-15.64l1.961-1.686     c4.02-3.562,7.785-7.386,11.141-11.427l1.68-2.002l15.258,8.789c1.535,0.9,3.674,0.305,4.582-1.23l12.965-22.485     c0.922-1.604,0.354-3.66-1.226-4.581l-15.664-9.021l0.855-2.435c1.677-4.952,2.961-10.144,3.877-15.42l0.456-2.595h17.618     c1.851,0,3.347-1.521,3.348-3.413v-25.932c0.002-0.866-0.366-1.705-0.983-2.367c-0.642-0.622-1.459-0.989-2.361-0.989h-18.07     l-0.499-2.514c-1.033-5.127-2.466-10.31-4.326-15.356l-0.891-2.493l15.17-8.778c1.622-0.92,2.141-2.983,1.222-4.593     l-12.964-22.432c-0.858-1.53-2.996-2.136-4.581-1.226l-15.649,9.02l-1.686-1.916c-3.56-4.033-7.387-7.772-11.406-11.13     l-2.022-1.682l8.763-15.251c0.916-1.602,0.396-3.665-1.229-4.585l-22.438-12.971c-1.526-0.896-3.671-0.304-4.574,1.229     l-9.048,15.641l-2.411-0.833c-4.949-1.676-10.151-2.98-15.49-3.897l-2.599-0.452V196.46c0-1.883-1.51-3.401-3.359-3.401h-25.93     c-1.872,0-3.365,1.519-3.365,3.401v18.027l-2.497,0.521c-5.23,1.015-10.382,2.51-15.39,4.34l-2.456,0.869l-8.753-15.197     c-0.916-1.586-3.041-2.143-4.659-1.222l-22.438,12.97c-0.766,0.451-1.318,1.148-1.535,1.995     c-0.246,0.898-0.137,1.812,0.317,2.586l9.053,15.647l-1.9,1.728c-4.113,3.594-7.864,7.418-11.134,11.38l-1.681,2.05     l-15.249-8.832c-1.535-0.856-3.711-0.303-4.63,1.284l-12.967,22.43c-0.452,0.768-0.561,1.68-0.316,2.529     c0.224,0.896,0.773,1.599,1.575,2.05l15.638,9.021l-0.818,2.433c-1.688,5.016-3.001,10.207-3.912,15.474l-0.45,2.597h-17.609     c-1.845,0-3.364,1.521-3.364,3.364v25.93c0,1.841,1.521,3.359,3.364,3.359h18.056l0.496,2.517     c1.062,5.256,2.5,10.436,4.328,15.349l0.911,2.498l-15.239,8.783c-0.77,0.455-1.317,1.154-1.541,2.046     c-0.22,0.851-0.103,1.761,0.32,2.529l12.964,22.49c0.905,1.525,3.038,2.085,4.617,1.219l15.658-9.06l1.684,1.912     c3.603,4.1,7.43,7.842,11.438,11.14l2,1.682l-8.793,15.253c-0.433,0.814-0.536,1.727-0.322,2.576     c0.244,0.849,0.775,1.593,1.542,2.001l22.506,12.969c1.534,0.906,3.669,0.354,4.538-1.173L762.355,412.833L762.355,412.833z      M797.743,386.421c-38.84,0-70.393-31.58-70.393-70.402c0-38.826,31.553-70.408,70.392-70.408     c38.781,0,70.364,31.583,70.364,70.408C868.108,354.841,836.525,386.421,797.743,386.421L797.743,386.421z M797.743,251.864     c-35.386,0-64.158,28.812-64.158,64.155c0,35.383,28.772,64.149,64.158,64.149c35.361,0,64.135-28.768,64.135-64.149     C861.878,280.676,833.106,251.864,797.743,251.864L797.743,251.864z"/>
		</g>
	</g>
	<g opacity="0.3">
		<path fill="#FFFFFF" d="M939.234,239.484h-12.897c-3.662,0-6.666-3.023-6.666-6.688v-8.333c0-0.61-0.622-1.511-1.225-1.685    l-3.968-1.657c-0.72-0.316-1.851-0.099-2.241,0.229l-5.896,5.939c-2.543,2.513-6.937,2.509-9.417-0.001l-9.151-9.15    c-1.232-1.231-1.968-2.908-1.968-4.721c0.021-1.768,0.735-3.442,1.972-4.674l5.936-5.934c0.42-0.396,0.581-1.472,0.312-2.005    l-1.663-4.025c-0.269-0.76-1.131-1.387-1.734-1.387h-8.381c-3.661,0-6.662-2.979-6.662-6.642v-12.951c0-3.664,3-6.646,6.662-6.646    h8.381c0.604,0,1.469-0.67,1.685-1.218l1.61-3.967c0.373-0.756,0.211-1.834-0.21-2.277l-5.937-5.888    c-1.234-1.229-1.969-2.908-1.969-4.719c0.021-1.769,0.734-3.442,1.973-4.675l9.146-9.15c2.479-2.509,6.877-2.513,9.415-0.001    l5.89,5.894c0.252,0.229,0.767,0.458,1.37,0.458c0.404,0,0.585-0.081,0.704-0.098l3.971-1.669c0.771-0.29,1.396-1.149,1.396-1.753    v-8.38c0-3.666,3.004-6.645,6.666-6.645h12.897c3.668,0,6.675,2.979,6.675,6.645v8.38c0,0.604,0.644,1.465,1.207,1.675    l3.979,1.623c1.175,0.584,1.938,0.124,2.254-0.235l5.933-5.893c2.498-2.516,6.906-2.513,9.371,0.003l9.146,9.152    c1.251,1.228,1.966,2.901,1.966,4.669c0.002,1.811-0.713,3.487-1.969,4.723l-5.918,5.887c-0.386,0.44-0.604,1.521-0.326,2.055    l1.666,3.97c0.285,0.812,1.176,1.436,1.777,1.436h8.329c3.662,0,6.668,2.979,6.668,6.645v12.951c0,3.663-3.006,6.642-6.668,6.642    h-8.329c-0.604,0-1.493,0.624-1.677,1.216l-1.646,3.978c-0.398,0.752-0.183,1.829,0.207,2.227l5.916,5.936    c1.25,1.228,1.967,2.902,1.967,4.669c0.002,1.812-0.713,3.487-1.969,4.722l-9.148,9.149c-2.46,2.507-6.87,2.513-9.362,0.003    l-5.937-5.892c-0.319-0.363-1.508-0.607-2.088-0.361l-3.941,1.664c-0.768,0.246-1.407,1.147-1.407,1.759v8.332    C945.908,236.46,942.901,239.484,939.234,239.484L939.234,239.484z M913.603,214.69c1.229,0,2.438,0.245,3.464,0.77l3.562,1.458    c2.958,0.986,5.294,4.263,5.294,7.546v8.332c0,0.227,0.164,0.436,0.412,0.436h12.898c0.252,0,0.423-0.211,0.423-0.436v-8.332    c0-3.282,2.381-6.56,5.479-7.621l3.554-1.466c0.864-0.442,2.058-0.688,3.28-0.688c2.184,0,4.351,0.848,5.801,2.292l5.881,5.888    c0.109,0.083,0.245,0.135,0.302,0.135l9.425-9.285l-0.002-0.001l0.002-0.545l-5.918-5.937c-2.321-2.309-2.945-6.323-1.462-9.24    l1.432-3.583c1.005-2.907,4.256-5.271,7.568-5.271h8.329c0.246,0,0.412-0.211,0.412-0.389v-12.951    c0-0.223-0.166-0.391-0.412-0.391h-8.329c-3.313,0-6.613-2.362-7.62-5.49l-1.488-3.577c-1.373-2.744-0.749-6.714,1.567-9.021    l5.921-5.938l-0.002-0.002l0.002-0.542l-9.148-9.155c-0.332-0.134-0.468-0.08-0.577,0.003l-5.882,5.892    c-2.248,2.266-6.385,2.956-9.264,1.517l-3.561-1.463c-2.899-0.974-5.286-4.25-5.286-7.539v-8.38c0-0.177-0.177-0.392-0.423-0.392    h-12.899c-0.229,0-0.413,0.167-0.413,0.392v8.38c0,3.29-2.343,6.566-5.494,7.619l-3.529,1.465    c-0.856,0.443-2.065,0.689-3.297,0.689c-2.184,0-4.354-0.848-5.797-2.292l-5.886-5.891h-0.571l-9.148,9.155l0.001,0.001    l-0.001,0.542l5.938,5.892c2.3,2.353,2.926,6.322,1.493,9.284l-1.479,3.58c-0.962,2.912-4.263,5.271-7.522,5.271h-8.381    c-0.224,0-0.408,0.17-0.408,0.391v12.951c0,0.176,0.188,0.389,0.408,0.389h8.381c3.262,0,6.562,2.359,7.62,5.483l1.441,3.593    c1.375,2.739,0.75,6.71-1.553,9.017l-5.938,5.938l0.001,0.001l-0.001,0.545l9.149,9.15c0.354,0.134,0.466,0.081,0.574-0.002    l5.889-5.889C909.243,215.539,911.415,214.69,913.603,214.69L913.603,214.69z M932.785,202.429    c-11.134,0-20.15-9.021-20.15-20.151c0-11.131,9.021-20.195,20.15-20.195s20.151,9.064,20.151,20.195    C952.938,193.407,943.917,202.429,932.785,202.429L932.785,202.429z M932.785,168.335c-7.646,0-13.896,6.249-13.896,13.941    c0,7.647,6.25,13.898,13.896,13.898c7.668,0,13.917-6.251,13.917-13.898C946.702,174.584,940.454,168.335,932.785,168.335    L932.785,168.335z"/>
	</g>
	<path opacity="0.3" fill="#FFFFFF" d="M869.563,142.535h-4.68c-1.073,0-2.27-0.839-2.589-1.845   l-0.873-2.123c-0.49-0.979-0.241-2.368,0.52-3.133l3.27-3.284c0.766-0.76,0.766-2.038,0-2.8l-5.057-5.059   c-0.768-0.765-2.021-0.765-2.783,0l-3.306,3.281c-0.764,0.765-2.149,0.996-3.113,0.482l-2.099-0.852   c-1.046-0.321-1.861-1.518-1.861-2.59v-4.653c0-1.07-0.883-1.93-1.979-1.93h-7.18c-1.113,0-1.977,0.858-1.977,1.93v4.653   c0,1.073-0.854,2.27-1.884,2.59l-2.081,0.852c-0.978,0.514-2.393,0.282-3.15-0.482l-3.264-3.281c-0.764-0.765-1.996-0.765-2.798,0   l-5.082,5.059c-0.767,0.762-0.767,2.04,0,2.8l3.302,3.284c0.766,0.765,0.975,2.153,0.505,3.133l-0.865,2.123   c-0.347,1.005-1.521,1.845-2.593,1.845h-4.635c-1.068,0-1.975,0.856-1.975,1.975v7.178c0,1.074,0.903,1.975,1.975,1.975h4.635   c1.072,0,2.246,0.836,2.593,1.844l0.865,2.123c0.47,0.935,0.261,2.369-0.505,3.133l-3.302,3.285c-0.767,0.763-0.767,1.995,0,2.756   l5.082,5.103c0.802,0.764,2.034,0.764,2.798,0l3.264-3.284c0.762-0.764,2.176-0.992,3.15-0.524l2.081,0.851   c1.028,0.367,1.884,1.518,1.884,2.591v4.65c0,1.12,0.86,1.975,1.977,1.975h7.18c1.1,0,1.979-0.854,1.979-1.975v-4.65   c0-1.073,0.815-2.225,1.861-2.591l2.099-0.851c0.964-0.467,2.353-0.238,3.113,0.524l3.306,3.284c0.765,0.764,2.019,0.764,2.783,0   l5.057-5.103c0.766-0.761,0.766-1.993,0-2.756l-3.27-3.285c-0.761-0.764-1.01-2.198-0.52-3.133l0.873-2.123   c0.319-1.007,1.516-1.844,2.589-1.844h4.68c1.023,0,1.927-0.9,1.927-1.975v-7.178C871.487,143.391,870.586,142.535,869.563,142.535   z M841.403,157.564c-5.21,0-9.47-4.259-9.47-9.466c0-5.254,4.26-9.514,9.47-9.514c5.271,0,9.489,4.26,9.489,9.514   C850.894,153.306,846.676,157.564,841.403,157.564z"/>
	<path fill="#FFFFFF" d="M620.572,193.347c0-28.814-23.352-52.169-52.175-52.169c-6.182,0-12.123,1.14-17.607,3.133   c-6.337-26.918-30.438-46.986-59.272-46.986c-33.191,0-60.198,26.625-60.829,59.713c-2.963-0.608-6.011-0.968-9.131-0.968   c-24.664,0-44.71,20.037-44.71,44.751c0,20.214,13.435,37.24,31.818,42.799c3.721,1.222,7.631,1.906,11.801,1.906H571   c4.582,0,9.009-0.903,13.1-2.432C605.234,236.458,620.572,216.693,620.572,193.347z"/>
	<path fill="#99D5DC" d="M704.273,165.068c0-25.399-20.604-46.008-46.023-46.008c-5.465,0-10.686,0.997-15.532,2.756   c-5.586-23.729-26.854-41.433-52.274-41.433c-29.295,0-53.147,23.497-53.701,52.648c-2.598-0.488-5.316-0.79-8.019-0.79   c-21.806,0-39.495,17.633-39.495,39.445c0,17.843,11.881,32.877,28.08,37.763c3.271,1.071,6.768,1.68,10.42,1.68h132.819   c4.053,0,7.953-0.771,11.538-2.135C690.74,203.13,704.273,185.67,704.273,165.068z"/>
	<g>
		<g>
			<path fill="#B7C9CB" d="M418.339,760.453c-7.316,29.82-14.63,59.678-21.898,89.562c68.137,0,136.275,0,204.449,0     c-7.312-29.886-14.625-59.74-21.897-89.562C525.443,760.453,471.892,760.453,418.339,760.453z"/>
			<path fill="#E8E8E8" d="M613.501,848.442H383.785c-5.857,0-10.588,5.539-10.588,12.397v4.611h250.889v-4.611     C624.085,853.981,619.355,848.442,613.501,848.442z"/>
			<path fill="#E8E8E8" d="M153.179,725.575v49.37c0,9.481,7.696,17.174,17.222,17.174h656.522c9.475,0,17.195-7.689,17.195-17.174     v-49.37H153.179z"/>
			<path fill="#174F78" d="M844.118,725.575v-417.94c0-9.526-7.724-17.228-17.195-17.228H170.401     c-9.523,0-17.222,7.699-17.222,17.228v417.94H844.118L844.118,725.575z"/>
			<rect x="181.48" y="317.312" fill="#FFFFFF" width="634.321" height="379.701"/>
		</g>
		<g>
			<rect x="251.65" y="634.453" fill="#F3901D" width="29.062" height="38.751"/>
			<rect x="309.775" y="599.589" fill="#F3901D" width="29.063" height="73.615"/>
			<rect x="367.903" y="572.879" fill="#F3901D" width="29.019" height="100.325"/>
			<rect x="425.984" y="597.051" fill="#F3901D" width="29.063" height="76.153"/>
			<rect x="484.109" y="510.481" fill="#F3901D" width="29.064" height="162.723"/>
			<rect x="542.235" y="539.544" fill="#F3901D" width="29.062" height="133.66"/>
			<rect x="600.357" y="479.502" fill="#F3901D" width="29.062" height="193.702"/>
			<rect x="658.482" y="425.26" fill="#F3901D" width="29.059" height="247.944"/>
			<rect x="716.579" y="369.055" fill="#F3901D" width="29.049" height="304.148"/>
		</g>
		<g>
			<rect x="223.581" y="361.568" fill="#DE3F18" width="118.552" height="11.292"/>
			<rect x="223.581" y="390.26" fill="#99D5DC" width="214.28" height="6.944"/>
			<rect x="223.581" y="411.606" fill="#99D5DC" width="182.097" height="6.942"/>
			<rect x="223.581" y="432.906" fill="#99D5DC" width="201.781" height="6.944"/>
			<rect x="223.581" y="454.254" fill="#99D5DC" width="157.018" height="6.944"/>
			<path fill="#DE3F18" d="M223.581,481.276v20.292h69.349v-20.292H223.581z M281.317,494.912h-46.128v-6.939h46.128V494.912z"/>
		</g>
	</g>
	<g>
		<path fill="#99D5DC" d="M220.992,631.641c-1.007,0-2.002-0.492-2.608-1.409c-0.969-1.441-0.53-3.403,0.919-4.329l165.618-107.27    c0.938-0.617,2.216-0.68,3.213-0.133l49.508,27.75l60.893-95.428c0.464-0.753,1.226-1.23,2.117-1.383    c0.849-0.155,1.751,0.069,2.442,0.604l52.119,40.074l171.724-148.08c1.29-1.138,3.271-0.989,4.395,0.313    c1.147,1.302,1,3.278-0.314,4.417L557.401,496.524c-1.135,0.979-2.801,1.002-3.958,0.136l-51.476-39.589l-60.658,95    c-0.858,1.426-2.688,1.884-4.136,1.058l-50.474-28.229L222.676,631.15C222.145,631.485,221.59,631.641,220.992,631.641    L220.992,631.641z"/>
	</g>
	<path fill="#DE3F18" d="M237.552,627.185c0,6.732-5.434,12.195-12.203,12.195c-6.721,0-12.151-5.463-12.151-12.195   c0-6.764,5.434-12.188,12.151-12.188C232.119,614.995,237.552,620.423,237.552,627.185z"/>
	<path fill="#DE3F18" d="M396.918,522.519c0,6.726-5.438,12.155-12.203,12.155c-6.722,0-12.157-5.433-12.157-12.155   c0-6.768,5.437-12.197,12.157-12.197C391.481,510.32,396.918,515.753,396.918,522.519z"/>
	<path fill="#DE3F18" d="M450.553,549.6c0,6.725-5.437,12.156-12.158,12.156c-6.766,0-12.201-5.435-12.201-12.156   c0-6.767,5.437-12.2,12.201-12.2C445.116,537.398,450.553,542.835,450.553,549.6z"/>
	<path fill="#DE3F18" d="M514.096,453.254c0,6.724-5.436,12.157-12.203,12.157c-6.72,0-12.156-5.436-12.156-12.157   c0-6.766,5.438-12.199,12.156-12.199C508.66,441.054,514.096,446.488,514.096,453.254z"/>
	<path fill="#DE3F18" d="M569.843,495.44c0,6.721-5.479,12.155-12.201,12.155s-12.201-5.437-12.201-12.155   c0-6.769,5.479-12.201,12.201-12.201S569.843,488.674,569.843,495.44z"/>
	<path fill="#DE3F18" d="M741.18,344.402c0,6.722-5.478,12.201-12.202,12.201c-6.721,0-12.201-5.479-12.201-12.201   c0-6.723,5.48-12.201,12.201-12.201C735.702,332.201,741.18,337.68,741.18,344.402z"/>
	<g>
		<path fill="none" d="M840.525,598.731"/>
	</g>
	<g>
		<path fill="#DE3F18" d="M979.89,738.921c-0.011,0.007-0.064,0.014-0.073,0.05c-11.264,11.226-29.529,11.176-40.756-0.1    l-87.904-88.331c-11.217-11.277-11.211-29.493,0.021-40.72c0.009-0.043,0.035-0.05,0.044-0.069    c11.307-11.225,29.552-11.198,40.797,0.089l87.908,88.338C991.145,709.471,991.116,727.667,979.89,738.921L979.89,738.921z"/>
		<path fill="#FD6120" d="M967.311,738.36c-4.321,4.31-11.399,4.299-15.728-0.059l-87.907-88.337    c-4.341-4.366-4.32-11.429,0.006-15.765c4.37-4.367,11.47-4.359,15.817,0.021l87.904,88.318    c4.322,4.381,4.316,11.438-0.006,15.771L967.311,738.36z"/>
		<path fill="#103754" d="M838.99,597.17h-0.002c-21.347,21.376-49.728,33.099-79.888,33.077    c-62.144-0.132-112.583-50.773-112.492-112.913c0.066-29.95,11.793-58.201,33.068-79.431    c21.351-21.361,49.693-33.089,79.845-33.069c30.062,0.066,58.321,11.855,79.58,33.211c21.283,21.315,32.971,49.641,32.928,79.705    C871.987,547.736,860.238,575.935,838.99,597.17L838.99,597.17z"/>
		<g>
			<path fill="#FFFFFF" d="M700.058,458.271c-15.824,15.824-24.549,36.83-24.602,59.129c-0.082,46.241,37.462,83.931,83.691,84     c22.438,0.025,43.545-8.695,59.464-24.604l0.003,0.004c15.822-15.816,24.515-36.812,24.596-59.108     c0.038-22.365-8.684-43.397-24.512-59.291c-15.853-15.895-36.873-24.667-59.23-24.726     C737.071,433.658,715.947,442.376,700.058,458.271L700.058,458.271z"/>
			<path fill="#FFFFFF" d="M818.698,458.4c-15.853-15.895-36.873-24.667-59.23-24.726c-6.283-0.005-12.501,0.707-18.498,2.021     c-9.118,4.152-17.546,9.916-24.871,17.241c-15.792,15.821-24.533,36.825-24.566,59.13c-0.099,46.202,37.451,83.894,83.684,83.964     c6.32,0.042,12.511-0.673,18.542-2.026c9.12-4.114,17.554-9.917,24.854-17.208l0.004,0.004     c15.821-15.816,24.514-36.812,24.597-59.108C843.249,495.326,834.528,474.294,818.698,458.4z"/>
		</g>
		<g>
			<path fill="#174F78" d="M759.109,623.845c-28.35-0.057-55.014-11.147-75.061-31.289c-20.058-20.138-31.108-46.832-31.042-75.218     c0.059-28.279,11.134-54.895,31.149-74.957c20.126-20.081,46.79-31.152,75.135-31.152c0.085,0,0.14,0,0.223,0l-0.037,14.177     c-0.078,0-0.104,0-0.185,0c-24.559,0-47.668,9.618-65.081,27.029c-17.393,17.354-26.979,40.435-27.032,64.955     c-0.021,24.544,9.532,47.697,26.899,65.161c17.399,17.427,40.506,27.071,65.064,27.125L759.109,623.845L759.109,623.845z"/>
		</g>
		<g>
			<g>
				<g>
					<g>
						<defs>
							<path id="SVGID_1_" d="M700.058,458.271c-15.824,15.824-24.549,36.83-24.602,59.129c-0.082,46.241,37.462,83.931,83.691,84         c22.438,0.025,43.545-8.695,59.464-24.604l0.003,0.004c15.822-15.816,24.515-36.812,24.596-59.108         c0.038-22.365-8.684-43.397-24.512-59.291c-15.853-15.895-36.873-24.667-59.23-24.726         C737.071,433.658,715.947,442.376,700.058,458.271L700.058,458.271z"/>
						</defs>
						<clipPath id="SVGID_2_">
							<use xlink:href="#SVGID_1_"/>
						</clipPath>
						<g clip-path="url(#SVGID_2_)">
							<rect x="647.115" y="312.737" fill="#F3901D" width="49.258" height="420.188"/>
							<rect x="724.27" y="219.734" fill="#F3901D" width="49.219" height="515.399"/>
						</g>
					</g>
				</g>
			</g>
		</g>
		<g opacity="0.2">
			<path fill="#3AA9B5" d="M700.058,458.271c-15.824,15.824-24.549,36.83-24.602,59.129c-0.082,46.241,37.462,83.931,83.691,84     c22.438,0.025,43.545-8.695,59.464-24.604l0.003,0.004c15.822-15.816,24.515-36.812,24.596-59.108     c0.038-22.365-8.684-43.397-24.512-59.291c-15.853-15.895-36.873-24.666-59.23-24.726     C737.071,433.658,715.947,442.376,700.058,458.271L700.058,458.271z"/>
			<path fill="#9EE2DA" d="M818.698,458.4c-15.853-15.895-36.873-24.666-59.23-24.726c-6.283-0.005-12.501,0.707-18.498,2.021     c-9.118,4.152-17.546,9.916-24.871,17.24c-15.792,15.821-24.533,36.826-24.566,59.13c-0.099,46.202,37.451,83.894,83.684,83.964     c6.32,0.042,12.511-0.673,18.542-2.026c9.12-4.115,17.554-9.917,24.854-17.208l0.004,0.004     c15.821-15.816,24.514-36.812,24.597-59.108C843.249,495.326,834.528,474.294,818.698,458.4z"/>
		</g>
		<g>
			<path fill="#103754" d="M862.532,621.621c-5.626,5.611-14.772,5.606-20.389-0.051l-17.971-18.521     c-5.61-5.651-5.598-14.746,0.041-20.361c0.006-0.038,0.009-0.041,0.038-0.047c5.62-5.612,14.731-5.604,20.352,0.057     l17.947,18.515c5.63,5.651,5.604,14.75-0.012,20.364C862.54,621.578,862.532,621.619,862.532,621.621z"/>
		</g>
	</g>
	<g>
		<g>
			<g>
				<path fill="#174F78" d="M328.555,593.255H105.35c-9,0-16.262,7.308-16.262,16.305v293.828c0,8.99,7.262,16.229,16.262,16.229      h223.205c8.99,0,16.254-7.237,16.254-16.229v-293.83C344.808,600.561,337.545,593.255,328.555,593.255z"/>
				<path fill="#FFFFFF" d="M216.95,911.35c-3.599,0-6.556-2.933-6.556-6.555c0-3.646,2.958-6.549,6.556-6.549      c3.595,0,6.552,2.903,6.552,6.549C223.502,908.419,220.544,911.35,216.95,911.35z"/>
				<rect x="118.092" y="624.817" fill="#FFFFFF" width="197.712" height="263.254"/>
			</g>
		</g>
		<g>
			<g>
				<path fill="#F1A648" d="M241.598,764.485c-1.171,3.696-3.133,7.014-5.669,9.811l19.451,27.198      c9.84-8.519,16.877-20.114,19.552-33.305L241.598,764.485z"/>
				<path fill="#A1B400" d="M221.75,730.047c11.354,2.343,19.916,11.902,21.054,23.616l33.271,3.698      c0.001-0.396,0.066-0.756,0.066-1.153c0-31.191-23.89-56.777-54.395-59.527L221.75,730.047L221.75,730.047z"/>
				<path fill="#2DAEB7" d="M196.583,738.289c3.732-4.08,8.674-7.104,14.271-8.242v-33.366c-17.722,1.591-33.2,10.943-43.049,24.629      L196.583,738.289z"/>
				<path fill="#FD6120" d="M227.095,780.652c-3.293,1.477-6.941,2.297-10.771,2.297c-14.787,0-26.764-11.957-26.764-26.741      c0-3.008,0.607-5.823,1.524-8.553L162.256,730.7c-3.667,7.729-5.792,16.354-5.792,25.508c0,33.079,26.777,59.84,59.858,59.84      c11.008,0,21.306-3.047,30.21-8.268L227.095,780.652z"/>
			</g>
			<g>
				<rect x="218.316" y="851.242" fill="#B7C9CB" width="56.979" height="5.044"/>
				<rect x="142.791" y="835.062" fill="#B7C9CB" width="56.984" height="5.047"/>
				<rect x="131.186" y="684.844" fill="#B7C9CB" width="56.983" height="5.047"/>
				<g>
					<polygon fill="#B7C9CB" points="199.866,840.575 197.478,839.969 202.753,818.908 205.184,819.517      "/>
				</g>
				<g>
					<polygon fill="#B7C9CB" points="193.373,697.505 185.811,686.104 187.877,684.725 195.44,696.099      "/>
				</g>
				<rect x="245.234" y="680.505" fill="#B7C9CB" width="56.981" height="5.044"/>
				<g>
					<polygon fill="#B7C9CB" points="238.621,696.625 236.485,695.329 245.469,680.419 247.604,681.688      "/>
				</g>
				<g>
					<polygon fill="#B7C9CB" points="272.781,852.607 260.425,800.432 262.858,799.839 275.214,852.012      "/>
				</g>
			</g>
		</g>
	</g>
</g>
<rect x="0" fill="none" width="1000" height="1000"/>
</svg>
